<?xml version="1.0" encoding="UTF-8" standalone="no"?>
<!-- Created with Inkscape (http://www.inkscape.org/) -->

<svg
   width="115.59161mm"
   height="133.79269mm"
   viewBox="0 0 115.59161 133.79269"
   version="1.1"
   id="svg1"
   xml:space="preserve"
   xmlns="http://www.w3.org/2000/svg"
   xmlns:svg="http://www.w3.org/2000/svg"><defs
     id="defs1" /><path
     style="fill:#666666;fill-opacity:1;stroke-width:0.122922"
     d="m 57.200482,36.167204 -26.769399,15.49643 0.0034,14.66155 9.768773,5.69058 0.122914,-13.79821 27.122432,-16.0787 z"
     id="path6-1" /><path
     style="fill:#666666;fill-opacity:1;stroke-width:0.122922"
     d="m 30.534777,83.017924 26.877785,15.30768 12.66064,-7.39387 -0.0101,-11.30537 -11.97876,6.84946 -27.558626,-15.31905 z"
     id="path6-2-8" /><path
     style="fill:#666666;fill-opacity:1;stroke-width:0.122922"
     d="m 84.133492,82.759694 -0.0356,-30.93119 -12.69913,-7.32757 -9.81257,5.61473 11.88815,7.00554 0.36334,31.52806 z"
     id="path6-4-9" /><path
     style="fill:#64bc4f;fill-opacity:1;stroke-width:0.264583"
     d="M 57.619732,-6.0561472e-6 -2.8610538e-6,33.355244 0.00759714,64.913464 21.03437,77.162134 21.298935,47.462214 79.678532,12.853664 Z"
     id="path6" /><path
     style="fill:#64bc4f;fill-opacity:1;stroke-width:0.264583"
     d="M 0.22320014,100.84372 58.076222,133.79268 85.327592,117.87778 85.306692,93.543554 59.523042,108.28664 0.20455814,75.313204 Z"
     id="path6-2" /><path
     style="fill:#64bc4f;fill-opacity:1;stroke-width:0.264583"
     d="m 115.59161,100.28788 -0.0766,-66.577776 -27.334218,-15.77218 -21.12104,12.08538 25.5886,15.07908 0.78208,67.862486 z"
     id="path6-4" /></svg>
