<?xml version="1.0" encoding="UTF-8" standalone="no"?>
<!-- Created with Inkscape (http://www.inkscape.org/) -->

<svg
   width="70.744255mm"
   height="24.808208mm"
   viewBox="0 0 70.744255 24.808208"
   version="1.1"
   id="svg1"
   xml:space="preserve"
   xmlns="http://www.w3.org/2000/svg"
   xmlns:svg="http://www.w3.org/2000/svg"><defs
     id="defs1" /><g
     id="layer1"
     transform="translate(-32.058688,-175.30116)"><path
       style="fill:#fefefe"
       d="m 95.174424,188.41699 1.562545,-1.62497 c 0,0 0.725853,0.72154 1.103895,1.06237 l 0.85083,0.76954 -5.582529,1.9227 c 0,0 1.378056,-1.41498 2.065259,-2.12964 z"
       id="path46865" /><path
       style="fill:#eceeed"
       d="m 94.636934,184.86442 2.100035,1.9276 -3.627804,3.75461 z"
       id="path46858" /><path
       style="fill:#21d07d"
       d="m 96.736969,186.79202 3.524411,-3.80541 -1.569686,5.63732 z"
       id="path46841" /><path
       style="fill:#26b66e"
       d="m 94.636934,184.86442 c 0,0 5.612916,-1.88933 5.624446,-1.87781 0.007,0.007 -3.524411,3.80541 -3.524411,3.80541 z"
       id="path46832" /><path
       style="fill:#0c16d9"
       d="m 74.435706,200.08137 c -0.41667,-0.085 -0.720617,-0.38151 -0.757508,-0.73894 l -0.01437,-0.13921 h 0.118635 0.118635 l 0.01777,0.11851 c 0.09361,0.62425 1.296217,0.74198 1.568649,0.15356 0.20963,-0.45279 -0.09751,-0.84014 -0.711017,-0.89671 -0.70591,-0.0651 -1.057557,-0.39186 -1.098375,-1.02068 -0.05711,-0.87978 0.753934,-1.41495 1.550871,-1.02333 l 0.11988,0.0589 0.0969,-0.10726 c 0.112638,-0.12467 0.118343,-0.12603 0.206416,-0.0489 l 0.06662,0.0583 -0.105686,0.12264 -0.105686,0.12265 0.06565,0.0861 c 0.349754,0.45856 0.232778,1.16536 -0.252058,1.523 l -0.09902,0.073 0.10986,0.056 c 1.005539,0.51299 0.263916,1.83903 -0.896161,1.60236 z m 0.614756,-1.83594 c 0.634869,-0.30053 0.635014,-1.29236 2.25e-4,-1.52987 -0.454853,-0.17018 -0.963486,0.0434 -1.083097,0.45488 -0.217072,0.7467 0.426583,1.38567 1.082872,1.07499 z m -10.137157,-0.23409 v -1.58055 h 0.116598 0.116598 l 5.07e-4,0.23968 5.07e-4,0.23967 0.09278,-0.11067 c 0.760412,-0.90698 2.149304,-0.13026 1.898314,1.06161 -0.185285,0.87986 -1.358115,1.17643 -1.907901,0.48246 l -0.08421,-0.1063 v 0.67732 0.67732 H 65.0299 64.913302 Z m 1.538957,0.38867 c 0.609795,-0.29362 0.6248,-1.35479 0.02332,-1.64907 -0.862712,-0.42209 -1.681646,0.56276 -1.143517,1.37519 0.21567,0.3256 0.744341,0.45486 1.120199,0.27388 z m -18.458564,-8.47277 v -9.09462 h 1.360305 c 1.278177,0 1.360318,0.003 1.360511,0.0453 3.74e-4,0.0826 0.17792,1.54059 0.188949,1.55162 0.006,0.006 0.09388,-0.0932 0.195402,-0.22034 1.217378,-1.52453 3.539042,-2.0466 5.75625,-1.2944 5.202577,1.76502 5.245564,9.94603 0.06124,11.65375 -2.180301,0.71819 -4.913742,0.1728 -5.878159,-1.17283 -0.057,-0.0795 -0.112388,-0.14517 -0.123076,-0.14585 -0.01069,-6.8e-4 -0.01943,1.74772 -0.01943,3.88534 v 3.88659 h -1.450992 -1.450992 z m 7.293827,0.0782 c 3.321499,-0.72969 3.480057,-5.67856 0.20841,-6.50482 -2.347253,-0.59281 -4.324128,0.87641 -4.324128,3.21371 0,2.23571 1.922395,3.77295 4.115718,3.29111 z m -0.893914,8.70267 c -0.738703,-0.12658 -1.12237,-0.96462 -0.778356,-1.70015 0.311988,-0.66706 1.30977,-0.80123 1.807328,-0.24302 l 0.08324,0.0934 9.73e-4,-0.6672 9.72e-4,-0.6672 h 0.129553 0.129553 v 1.58055 1.58054 h -0.129553 -0.129553 v -0.21319 -0.21318 l -0.07972,0.0967 c -0.225249,0.27327 -0.651025,0.41846 -1.034435,0.35276 z m 0.600495,-0.30107 c 0.840321,-0.37627 0.598319,-1.69102 -0.319865,-1.73776 -0.593918,-0.0302 -0.91544,0.28168 -0.91544,0.88808 0,0.71929 0.601905,1.1333 1.235305,0.84968 z m 3.389734,0.31394 c -0.562048,-0.0878 -0.941227,-0.35936 -0.753289,-0.53942 l 0.07585,-0.0727 0.08183,0.0932 c 0.38056,0.43343 1.372926,0.3468 1.372926,-0.11985 0,-0.22799 -0.159822,-0.33702 -0.595943,-0.40656 -0.786445,-0.12541 -1.049388,-0.34961 -0.922385,-0.78649 0.14313,-0.49234 1.098902,-0.64379 1.576553,-0.24981 l 0.09709,0.0801 -0.0685,0.0898 c -0.06813,0.0893 -0.0688,0.0895 -0.123002,0.04 -0.281349,-0.25731 -1.08397,-0.24193 -1.221183,0.0234 -0.160512,0.31039 0.02248,0.45456 0.748671,0.58982 0.614211,0.11441 0.853249,0.36626 0.742274,0.78207 -0.08043,0.30135 -0.591143,0.54206 -1.010892,0.47645 z m 4.50844,-0.0135 c -0.635529,-0.10406 -0.802679,-0.44176 -0.803032,-1.62241 l -1.96e-4,-0.65424 h 0.127821 0.127821 l 0.0082,0.77084 c 0.0093,0.87504 0.01738,0.91475 0.223227,1.10017 0.300051,0.27027 0.896491,0.21935 1.126006,-0.0961 0.158761,-0.21823 0.159201,-0.22091 0.169146,-1.02995 l 0.0092,-0.74493 h 0.127774 0.127774 v 1.12711 1.12711 h -0.129553 -0.129553 v -0.15876 -0.15876 l -0.113634,0.10474 c -0.146696,0.13522 -0.240202,0.18219 -0.452155,0.22711 -0.192496,0.0408 -0.216313,0.0413 -0.418813,0.008 z m 27.750234,0.003 c -1.2625,-0.22425 -1.25229,-2.07711 0.0126,-2.27918 0.33252,-0.0531 0.67414,0.056 0.91374,0.29181 l 0.13603,0.13389 v -0.21288 -0.21288 h 0.12955 0.12956 v 1.12711 1.12711 h -0.12956 -0.12955 v -0.19433 c 0,-0.2289 0.005,-0.22622 -0.13232,-0.0777 -0.12964,0.14064 -0.3689,0.26359 -0.58022,0.29816 -0.17297,0.0283 -0.18465,0.0282 -0.34979,-0.001 z m 0.60173,-0.31992 c 0.66633,-0.31884 0.61967,-1.41244 -0.0714,-1.67277 -0.62857,-0.2368 -1.21886,0.18381 -1.21603,0.86647 0.003,0.68929 0.66511,1.10406 1.2874,0.8063 z m -22.569929,0.29409 c -0.407414,-0.0841 -0.470366,-0.2596 -0.470366,-1.31121 v -0.709 h -0.233195 -0.233195 v -0.1166 -0.1166 h 0.233195 0.233195 v -0.31092 -0.31093 h 0.08857 c 0.04871,0 0.107011,-0.007 0.129553,-0.0157 0.03604,-0.0138 0.04098,0.0237 0.04098,0.31093 v 0.32665 h 0.362748 0.362748 v 0.1166 0.1166 H 68.8258 68.463052 v 0.76519 c 0,0.83313 0.0096,0.89905 0.14321,0.98661 0.0895,0.0586 0.350861,0.06 0.485296,0.002 l 0.09734,-0.0417 0.03852,0.0922 c 0.06672,0.15969 -0.241541,0.27975 -0.553104,0.21543 z m 16.747209,0.009 c -0.66225,-0.0878 -1.0803,-0.64686 -0.978,-1.30779 0.19905,-1.28593 2.05198,-1.28368 2.23443,0.003 0.0928,0.65436 -0.29578,1.19435 -0.93254,1.29589 -0.17053,0.0272 -0.18495,0.0276 -0.32389,0.009 z m 0.56664,-0.34107 c 0.31636,-0.15574 0.44143,-0.37627 0.44289,-0.78092 0.004,-1.1966 -1.68986,-1.247 -1.74208,-0.0518 -0.0318,0.7277 0.63909,1.15771 1.29919,0.83274 z m 7.40484,0.33242 c -0.40741,-0.0841 -0.47036,-0.2596 -0.47036,-1.31121 v -0.709 h -0.2332 -0.23319 v -0.1166 -0.1166 h 0.23319 0.2332 v -0.31092 -0.31093 h 0.0886 c 0.0487,0 0.10702,-0.007 0.12956,-0.0157 0.036,-0.0138 0.041,0.0237 0.041,0.31093 v 0.32665 h 0.36275 0.36275 v 0.1166 0.1166 h -0.36275 -0.36275 v 0.76519 c 0,0.83313 0.01,0.89905 0.14321,0.98661 0.0895,0.0586 0.35086,0.06 0.4853,0.002 l 0.0973,-0.0417 0.0385,0.0922 c 0.0667,0.15969 -0.24154,0.27975 -0.55311,0.21543 z m 3.24781,0.009 c -0.66226,-0.0878 -1.08031,-0.64686 -0.97801,-1.30779 0.19905,-1.28593 2.05198,-1.28368 2.23443,0.003 0.0928,0.65436 -0.29578,1.19435 -0.93254,1.29589 -0.17053,0.0272 -0.18495,0.0276 -0.32388,0.009 z m 0.56663,-0.34107 c 0.31636,-0.15574 0.44143,-0.37627 0.4429,-0.78092 0.004,-1.1966 -1.68987,-1.247 -1.74209,-0.0518 -0.0318,0.7277 0.63909,1.15771 1.29919,0.83274 z m -40.637345,-0.79388 v -1.12711 h 0.116598 0.116597 v 1.12711 1.12711 h -0.116597 -0.116598 z m 3.523839,0 v -1.12711 h 0.116597 0.116598 v 0.15547 c 0,0.18425 -0.0027,0.18316 0.131486,0.0529 0.203624,-0.19761 0.619282,-0.27691 0.9027,-0.17222 0.177509,0.0656 0.186699,0.0799 0.124392,0.19362 l -0.05387,0.0984 -0.07949,-0.0401 c -0.220339,-0.11125 -0.57665,-0.0543 -0.774162,0.12374 -0.212617,0.19165 -0.224608,0.25017 -0.224896,1.09753 l -2.53e-4,0.74493 h -0.129553 -0.129553 z m 9.794199,0 v -1.12711 h 0.116597 0.116598 v 1.12711 1.12711 h -0.116598 -0.116597 z m 1.088244,0 v -1.12711 h 0.116597 0.116598 v 0.16842 c 0,0.18573 0.0087,0.19731 0.07999,0.10666 0.386222,-0.491 1.346139,-0.3437 1.619612,0.24854 l 0.07528,0.16301 0.0082,0.7838 0.0082,0.78379 h -0.129862 -0.129861 l -0.0079,-0.78379 c -0.0075,-0.74568 -0.0106,-0.78884 -0.0638,-0.88744 -0.297155,-0.55069 -1.239168,-0.44109 -1.407149,0.16371 -0.01505,0.0542 -0.02656,0.40033 -0.02664,0.80146 l -1.44e-4,0.70606 h -0.129568 -0.129553 z m 6.892213,0 v -1.12711 h 0.1166 0.1166 v 1.12711 1.12711 h -0.1166 -0.1166 z m 1.06233,0 v -1.12711 h 0.1166 0.1166 v 0.16842 c 0,0.18573 0.009,0.19731 0.08,0.10666 0.38622,-0.491 1.34614,-0.3437 1.61961,0.24854 l 0.0753,0.16301 0.008,0.7838 0.008,0.78379 h -0.12986 -0.12986 l -0.008,-0.78379 c -0.008,-0.74568 -0.0106,-0.78884 -0.0638,-0.88744 -0.29715,-0.55069 -1.23916,-0.44109 -1.40715,0.16371 -0.0151,0.0542 -0.0266,0.40033 -0.0266,0.80146 l -1.4e-4,0.70606 h -0.12955 -0.12956 z m 2.79835,0 v -1.12711 h 0.11659 0.1166 v 0.16842 c 0,0.18573 0.009,0.19731 0.08,0.10666 0.38622,-0.491 1.34614,-0.3437 1.61961,0.24854 l 0.0753,0.16301 0.008,0.7838 0.008,0.78379 h -0.12986 -0.12986 l -0.008,-0.78379 c -0.007,-0.74568 -0.0106,-0.78884 -0.0638,-0.88744 -0.29716,-0.55069 -1.23917,-0.44109 -1.40715,0.16371 -0.0151,0.0542 -0.0266,0.40033 -0.0266,0.80146 l -1.5e-4,0.70606 h -0.12955 -0.12955 z m 6.3115,1.10489 c -0.0263,-0.0426 -0.9221,-2.19077 -0.9221,-2.2113 0,-0.0547 0.25083,-0.0206 0.27675,0.0376 0.0143,0.0321 0.19307,0.46456 0.39731,0.96109 0.33805,0.82183 0.37417,0.89735 0.40269,0.84209 0.0172,-0.0334 0.19764,-0.46587 0.4009,-0.96108 l 0.36956,-0.9004 h 0.13589 0.13589 l -0.42712,1.01699 c -0.23492,0.55935 -0.44603,1.06655 -0.46914,1.12711 -0.0415,0.10874 -0.25006,0.16972 -0.30063,0.0879 z m 6.59197,-1.10489 v -1.12711 h 0.11659 0.1166 v 1.12711 1.12711 h -0.1166 -0.11659 z m 3.99022,0 v -1.12711 h 0.1166 0.1166 v 0.16842 c 0,0.18573 0.009,0.19731 0.08,0.10666 0.38622,-0.491 1.346136,-0.3437 1.619606,0.24854 l 0.0753,0.16301 0.008,0.7838 0.008,0.78379 h -0.12986 -0.12986 l -0.008,-0.78379 c -0.008,-0.74568 -0.0106,-0.78884 -0.0638,-0.88744 -0.29715,-0.55069 -1.239166,-0.44109 -1.407146,0.16371 -0.0151,0.0542 -0.0266,0.40033 -0.0266,0.80146 l -1.4e-4,0.70606 h -0.12955 -0.12956 z m -42.054313,-1.66719 c -0.129075,-0.10452 -0.03863,-0.3236 0.133599,-0.3236 0.167619,0 0.242114,0.21416 0.110505,0.31768 -0.08443,0.0664 -0.166927,0.0684 -0.244104,0.006 z m 13.318038,0 c -0.129075,-0.10452 -0.03863,-0.3236 0.133599,-0.3236 0.167619,0 0.242114,0.21416 0.110505,0.31768 -0.08443,0.0664 -0.166928,0.0684 -0.244104,0.006 z m 7.980455,0 c -0.12907,-0.10452 -0.0386,-0.3236 0.1336,-0.3236 0.16762,0 0.24212,0.21416 0.11051,0.31768 -0.0844,0.0664 -0.16693,0.0684 -0.24411,0.006 z m 16.76415,0 c -0.12908,-0.10452 -0.0386,-0.3236 0.1336,-0.3236 0.16762,0 0.24211,0.21416 0.1105,0.31768 -0.0844,0.0664 -0.16693,0.0684 -0.2441,0.006 z m -56.276332,-2.88241 c -2.752874,-0.19225 -4.596934,-1.14891 -5.764378,-2.99043 -0.156259,-0.24648 -0.531892,-0.99073 -0.531892,-1.05385 0,-0.0315 2.526935,-1.3688 2.5862,-1.36871 0.0098,2e-5 0.05762,0.0886 0.106267,0.19676 0.675665,1.50276 2.429301,2.42554 4.614316,2.42808 2.486728,0.003 3.937607,-0.9831 3.853704,-2.61894 -0.06861,-1.33778 -1.20047,-2.02516 -3.89257,-2.36396 -3.115015,-0.39203 -4.757827,-1.0593 -5.72139,-2.32391 -1.082375,-1.42053 -1.104867,-3.7669 -0.05023,-5.24 2.132909,-2.97921 8.690992,-3.20391 11.339505,-0.38852 0.330321,0.35113 0.970128,1.28072 0.91762,1.33322 -0.07805,0.0781 -2.494475,1.27955 -2.511656,1.24885 -0.567638,-1.01431 -2.326069,-1.8145 -3.986805,-1.81422 -2.127367,3.5e-4 -3.420685,0.82864 -3.43042,2.19697 -0.0082,1.15239 0.939169,1.75515 3.255523,2.07131 0.267203,0.0365 0.704444,0.0961 0.971647,0.13263 4.043699,0.55202 5.885836,1.89874 6.20029,4.53281 0.467207,3.91363 -2.794313,6.38236 -7.955731,6.02191 z M 96.148504,192.891 c -3.43353,-0.27815 -5.66197,-2.79292 -5.57569,-6.29212 0.0865,-3.509 2.59292,-5.97052 6.08095,-5.97208 3.550916,-0.002 6.142356,2.58073 6.149166,6.12754 0.007,3.80124 -2.858596,6.44415 -6.654426,6.13666 z m 2.54319,-4.26707 1.569686,-5.63732 -2.807836,0.93521 c -1.544302,0.51436 -2.81178,0.93854 -2.81661,0.9426 -2.83e-4,2e-4 -1.527769,5.68221 -1.527769,5.68221 z m -25.253808,4.23059 c -3.955533,-0.28371 -6.394345,-3.84064 -5.37544,-7.8399 1.394537,-5.47364 9.395318,-6.03328 11.536598,-0.80697 1.84673,4.50739 -1.34873,8.99204 -6.161158,8.64687 z m 1.166225,-2.70409 c 1.840711,-0.32361 2.955553,-2.30219 2.447863,-4.34438 -0.859656,-3.45795 -5.505457,-3.41652 -6.215234,0.0554 -0.45797,2.2402 0.749226,4.11248 2.795475,4.3356 0.184362,0.0201 0.745388,-0.007 0.971896,-0.0466 z m 7.410173,-3.39609 v -5.89466 h 1.34735 c 0.75747,0 1.34735,0.01 1.34735,0.0228 0,0.0518 0.20493,1.30494 0.21505,1.31507 0.006,0.006 0.0812,-0.0855 0.16691,-0.20351 0.6694,-0.92107 1.45781,-1.33325 2.72102,-1.42251 1.25197,-0.0885 2.59127,0.30619 3.32093,0.97861 l 0.1406,0.12956 -0.64585,1.24791 c -0.35522,0.68635 -0.65173,1.24807 -0.65892,1.24828 -0.007,2e-4 -0.10629,-0.0695 -0.22024,-0.15497 -1.60103,-1.20042 -4.10125,-0.53552 -4.66108,1.23956 -0.16164,0.5125 -0.15377,0.31977 -0.1638,4.01369 l -0.009,3.37485 h -1.45008 -1.45008 z m -19.070183,-2.50037 v -8.34321 h 1.438038 1.438037 v 8.34321 8.34321 h -1.438037 -1.438038 z"
       id="path46829" /></g></svg>
