<?xml version="1.0" encoding="UTF-8" standalone="no"?>
<!-- Created with Inkscape (http://www.inkscape.org/) -->

<svg
   width="96.916786mm"
   height="50.553913mm"
   viewBox="0 0 96.916786 50.553913"
   version="1.1"
   id="svg1"
   xml:space="preserve"
   xmlns="http://www.w3.org/2000/svg"
   xmlns:svg="http://www.w3.org/2000/svg"><defs
     id="defs1" /><g
     id="layer1"
     transform="translate(-56.845774,-144.86951)"><path
       d="m 76.229151,145.44101 h -1.80975 v 13.23975 c 0,6.00075 -3.33375,10.23937 -8.810625,10.23937 -6.6675,0 -6.95325,-5.47687 -6.95325,-8.001 v -15.47812 h -1.80975 v 15.14475 c 0,3.00037 0.09525,9.906 8.715375,9.906 3.81,0 7.52475,-2.14313 8.763,-5.81025 h 0.09525 v 5.23875 h 1.80975 z m 16.573458,23.47912 c -6.905625,0 -8.9535,-5.38162 -8.9535,-11.19187 0,-5.81025 2.428875,-11.28713 8.9535,-11.28713 6.57225,0 9.191621,5.715 9.191621,11.28713 0,6.04837 -2.809871,11.19187 -9.191621,11.19187 z m -9.001125,-23.47912 h -1.80975 v 33.24225 h 1.80975 v -13.85888 h 0.09525 c 1.42875,3.95288 4.85775,5.66738 8.905875,5.66738 7.477121,0 11.001371,-5.334 11.001371,-12.7635 0,-6.90563 -3.47662,-12.85875 -11.001371,-12.85875 -5.381625,0 -8.143875,3.76237 -8.905875,6.19125 h -0.09525 z m 24.241116,24.47925 h 1.80975 v -13.23975 c 0,-6.00075 3.33375,-10.23938 8.81062,-10.23938 6.6675,0 6.95325,5.47688 6.95325,8.001 v 15.47813 h 1.80975 v -15.14475 c 0,-3.00038 -0.0953,-9.906 -8.71537,-9.906 -3.81,0 -7.52475,2.14312 -8.763,5.81025 h -0.0952 v -5.23875 h -1.80975 z m 40.95745,-9.3345 c 0,1.28587 -0.90487,8.33437 -9.144,8.33437 -4.28625,0 -6.42937,-2.38125 -6.42937,-5.334 0,-3.66712 2.42887,-5.19112 6.71512,-5.66737 3.52425,-0.47625 7.4295,-0.28575 8.85825,-1.905 z m 1.80975,-9.3345 c 0,-5.04825 -4.28625,-6.38175 -8.5725,-6.38175 -5.76262,0 -9.09637,2.71462 -9.3345,8.09625 h 1.80975 c 0.23813,-4.23863 3.14325,-6.52463 7.52475,-6.52463 5.57213,0 6.81038,3.71475 6.81038,4.81013 0,4.0005 -0.33338,4.52437 -8.42963,5.09587 -4.04812,0.33338 -9.00112,1.524 -9.00112,7.239 0,5.1435 3.57187,6.90563 8.1915,6.90563 4.66725,0 7.95337,-2.52413 9.09637,-5.42925 H 149 v 1.28587 c 0,2.00025 0.42863,3.57188 3.28613,3.57188 0.47625,0 0.9525,-0.0953 1.47637,-0.1905 v -1.524 c -0.5715,0.0952 -1.00012,0.14287 -1.3335,0.14287 -1.61925,0 -1.61925,-1.524 -1.61925,-2.95275 z"
       id="text1"
       style="-inkscape-font-specification:'Helvetica Neue LT Std weight=250';fill:#f00817;stroke-width:0.3;stroke-opacity:0.992157"
       aria-label="upna" /><path
       d="m 58.467621,183.38861 v 3.01978 c 0,0.67028 0.09878,2.13784 1.89089,2.13784 1.50989,0 1.961446,-0.93839 1.961446,-2.13784 v -3.01978 h -0.310445 v 3.01978 c 0,1.14301 -0.416278,1.86973 -1.651001,1.86973 -1.453445,0 -1.580445,-1.26295 -1.580445,-1.86973 v -3.01978 z m 4.691954,5.03767 h 0.268111 v -1.96144 c 0,-0.889 0.493889,-1.51695 1.305279,-1.51695 0.987778,0 1.030111,0.81139 1.030111,1.18534 v 2.29305 h 0.268112 v -2.24366 c 0,-0.4445 -0.01411,-1.46756 -1.291168,-1.46756 -0.564445,0 -1.114778,0.3175 -1.298223,0.86078 h -0.01411 v -0.77611 h -0.268111 z m 3.99344,0 v -3.62655 h -0.268111 v 3.62655 z m 0,-4.31094 v -0.72673 h -0.268111 v 0.72673 z m 3.605387,0.68439 h -0.296334 l -1.227667,3.31611 h -0.01411 l -1.312335,-3.31611 h -0.310444 l 1.460501,3.62655 h 0.331611 z m 3.414892,1.84855 c 0.04939,-1.03716 -0.458611,-1.93322 -1.594556,-1.93322 -1.093612,0 -1.615723,0.96661 -1.601612,1.96145 -0.01411,1.00189 0.543278,1.83444 1.601612,1.83444 0.860778,0 1.425223,-0.46567 1.566334,-1.31233 h -0.268111 c -0.127,0.67028 -0.613834,1.0795 -1.298223,1.0795 -0.896056,0 -1.347612,-0.77611 -1.333501,-1.62984 z m -2.928057,-0.23283 c 0.05644,-0.71967 0.529167,-1.46756 1.333501,-1.46756 0.832556,0 1.312334,0.70556 1.326445,1.46756 z m 3.824106,-1.61572 h -0.268111 v 3.62655 h 0.268111 v -1.98261 c 0.02822,-0.54328 0.141111,-0.76905 0.409222,-1.04422 0.324556,-0.3175 0.719668,-0.38806 1.00189,-0.35278 v -0.26811 c -0.656167,-0.0282 -1.248834,0.35278 -1.389945,0.8255 h -0.02117 z m 1.552222,2.42005 c 0.02117,0.84667 0.642056,1.29117 1.467557,1.29117 0.635,0 1.418167,-0.21872 1.418167,-1.00189 0,-0.762 -0.564444,-0.93133 -1.284112,-1.06539 -0.585611,-0.127 -1.2065,-0.21872 -1.2065,-0.79728 0,-0.51505 0.550333,-0.6985 1.044223,-0.6985 0.606778,0 1.065389,0.26811 1.072445,0.92428 h 0.268111 c 0,-0.8255 -0.5715,-1.15711 -1.340556,-1.15711 -0.613834,0 -1.312335,0.21167 -1.312335,0.93133 0,0.74084 0.62089,0.90312 1.248835,1.03012 0.620889,0.127 1.241778,0.21872 1.241778,0.83255 0,0.62795 -0.677334,0.76906 -1.150056,0.76906 -0.656167,0 -1.157112,-0.38806 -1.199445,-1.05834 z m 3.866455,1.2065 v -3.62655 h -0.268111 v 3.62655 z m 0,-4.31094 v -0.72673 h -0.268111 v 0.72673 z m 2.307163,4.16278 c -0.931334,0 -1.354667,-0.80434 -1.354667,-1.65806 0,-0.87489 0.388056,-1.67217 1.347612,-1.67217 0.931334,0 1.347612,0.8255 1.347612,1.67217 0,0.83256 -0.423334,1.65806 -1.340557,1.65806 z m 1.347612,0.14816 h 0.268112 v -5.03767 h -0.268112 v 2.22251 h -0.01411 c -0.1905,-0.5715 -0.747889,-0.89606 -1.340556,-0.89606 -1.093612,0 -1.615723,0.83256 -1.615723,1.905 0,1.00189 0.472722,1.89089 1.566334,1.89089 0.649111,0 1.093612,-0.28928 1.389945,-0.86078 h 0.01411 z m 3.527779,-1.38288 c 0,0.1905 -0.134056,1.23472 -1.354668,1.23472 -0.635,0 -0.9525,-0.35278 -0.9525,-0.79022 0,-0.54328 0.359833,-0.76906 0.994834,-0.83962 0.522111,-0.0705 1.100667,-0.0423 1.312334,-0.28222 z m 0.268111,-1.38289 c 0,-0.74789 -0.635,-0.94545 -1.270001,-0.94545 -0.853723,0 -1.347612,0.40217 -1.38289,1.19945 h 0.268112 c 0.03528,-0.62795 0.465667,-0.96662 1.114778,-0.96662 0.825501,0 1.008945,0.55034 1.008945,0.71262 0,0.59266 -0.04939,0.67027 -1.248834,0.75494 -0.599722,0.0494 -1.333501,0.22578 -1.333501,1.07245 0,0.762 0.529167,1.02305 1.213557,1.02305 0.691445,0 1.178278,-0.37394 1.347612,-0.80433 h 0.01411 v 0.1905 c 0,0.29633 0.0635,0.52916 0.486833,0.52916 0.07056,0 0.141112,-0.0141 0.218723,-0.0282 v -0.22578 c -0.08467,0.0141 -0.148167,0.0212 -0.197556,0.0212 -0.239889,0 -0.239889,-0.22578 -0.239889,-0.43744 z m 2.307167,2.61761 c -0.931334,0 -1.354668,-0.80434 -1.354668,-1.65806 0,-0.87489 0.388056,-1.67217 1.347612,-1.67217 0.931334,0 1.347612,0.8255 1.347612,1.67217 0,0.83256 -0.423333,1.65806 -1.340556,1.65806 z m 1.347612,0.14816 h 0.268111 v -5.03767 h -0.268111 v 2.22251 h -0.01411 c -0.190501,-0.5715 -0.74789,-0.89606 -1.340557,-0.89606 -1.093612,0 -1.615723,0.83256 -1.615723,1.905 0,1.00189 0.472722,1.89089 1.566334,1.89089 0.649112,0 1.093612,-0.28928 1.389946,-0.86078 h 0.01411 z m 3.443112,-4.76955 h 1.813279 c 1.008945,0 1.178279,0.762 1.178279,1.13594 0,0.52211 -0.310445,1.12184 -1.220612,1.12184 h -1.770946 z m -0.310444,4.76955 h 0.310444 v -2.24366 h 1.721557 c 1.00189,0 1.580446,-0.50095 1.580446,-1.38289 0,-1.2065 -0.896057,-1.41112 -1.467557,-1.41112 h -2.14489 z m 6.992058,-3.62655 h -0.26812 v 1.96144 c 0,0.889 -0.49388,1.51695 -1.30527,1.51695 -0.987782,0 -1.030116,-0.81139 -1.030116,-1.18534 v -2.29305 h -0.268111 v 2.24367 c 0,0.4445 0.01411,1.46755 1.291167,1.46755 0.56445,0 1.11478,-0.3175 1.29822,-0.86078 h 0.0141 v 0.77611 h 0.26812 z m -1.841505,-0.54328 h 0.261055 l 0.94545,-0.98778 h -0.35984 z m 4.353275,4.02167 c -0.98778,0 -1.38289,-0.86078 -1.38289,-1.74978 0,-0.91017 0.43745,-1.58045 1.38289,-1.58045 0.86783,0 1.30528,0.77612 1.30528,1.58045 0,0.83256 -0.35278,1.74978 -1.30528,1.74978 z m -1.65806,0.14816 h 0.26812 v -0.81138 h 0.0141 c 0.0564,0.1905 0.42333,0.89605 1.37583,0.89605 0.50095,0 1.57339,-0.254 1.57339,-1.98261 0,-1.00895 -0.508,-1.81328 -1.57339,-1.81328 -0.58561,0 -1.17122,0.28928 -1.37583,0.85372 h -0.0141 v -2.18017 h -0.26812 z m 3.92289,-5.03767 v 5.03767 h 0.26812 v -5.03767 z m 1.45344,5.03767 v -3.62655 h -0.26811 v 3.62655 z m 0,-4.31094 v -0.72673 h -0.26811 v 0.72673 z m 3.85234,1.80622 c -0.0776,-0.8255 -0.71262,-1.2065 -1.49578,-1.2065 -1.07245,0 -1.66512,0.85372 -1.66512,1.86267 0,1.00894 0.48684,1.93322 1.66512,1.93322 0.78316,0 1.41111,-0.49389 1.53105,-1.36172 h -0.26811 c -0.0917,0.66322 -0.58561,1.12889 -1.26294,1.12889 -0.93839,0 -1.397,-0.71967 -1.397,-1.70039 0,-0.8255 0.48683,-1.62984 1.397,-1.62984 0.65616,0 1.17828,0.33161 1.22766,0.97367 z m 3.06916,1.12184 c 0,0.1905 -0.13406,1.23472 -1.35467,1.23472 -0.635,0 -0.9525,-0.35278 -0.9525,-0.79022 0,-0.54328 0.35983,-0.76906 0.99483,-0.83962 0.52211,-0.0705 1.10067,-0.0423 1.31234,-0.28222 z m 0.26811,-1.38289 c 0,-0.74789 -0.635,-0.94545 -1.27,-0.94545 -0.85373,0 -1.34762,0.40217 -1.38289,1.19945 h 0.26811 c 0.0353,-0.62795 0.46566,-0.96662 1.11478,-0.96662 0.8255,0 1.00894,0.55034 1.00894,0.71262 0,0.59266 -0.0494,0.67027 -1.24883,0.75494 -0.59973,0.0494 -1.3335,0.22578 -1.3335,1.07245 0,0.762 0.52916,1.02305 1.21355,1.02305 0.69145,0 1.17828,-0.37394 1.34761,-0.80433 h 0.0141 v 0.1905 c 0,0.29633 0.0635,0.52916 0.48683,0.52916 0.0705,0 0.14111,-0.0141 0.21872,-0.0282 v -0.22578 c -0.0847,0.0141 -0.14817,0.0212 -0.19755,0.0212 -0.23989,0 -0.23989,-0.22578 -0.23989,-0.43744 z m 4.26861,2.61761 c -0.93133,0 -1.35467,-0.80434 -1.35467,-1.65806 0,-0.87489 0.38806,-1.67217 1.34762,-1.67217 0.93133,0 1.34761,0.8255 1.34761,1.67217 0,0.83256 -0.42333,1.65806 -1.34056,1.65806 z m 1.34761,0.14816 h 0.26812 v -5.03767 h -0.26812 v 2.22251 h -0.0141 c -0.1905,-0.5715 -0.74789,-0.89606 -1.34055,-0.89606 -1.09361,0 -1.61573,0.83256 -1.61573,1.905 0,1.00189 0.47273,1.89089 1.56634,1.89089 0.64911,0 1.09361,-0.28928 1.38994,-0.86078 h 0.0141 z m 4.15573,-1.778 c 0.0494,-1.03716 -0.45861,-1.93322 -1.59456,-1.93322 -1.09361,0 -1.61572,0.96661 -1.60161,1.96145 -0.0141,1.00189 0.54328,1.83444 1.60161,1.83444 0.86078,0 1.42522,-0.46567 1.56634,-1.31233 h -0.26812 c -0.127,0.67028 -0.61383,1.0795 -1.29822,1.0795 -0.89606,0 -1.34761,-0.77611 -1.3335,-1.62984 z m -2.92806,-0.23283 c 0.0564,-0.71967 0.52917,-1.46756 1.3335,-1.46756 0.83256,0 1.31234,0.70556 1.32645,1.46756 z m 5.56683,2.01083 h 0.31045 v -4.65666 h 0.0141 l 3.20322,4.65666 h 0.36689 v -5.03767 h -0.31044 v 4.6214 h -0.0141 l -3.18205,-4.6214 h -0.38806 z m 7.14022,-1.38288 c 0,0.1905 -0.13406,1.23472 -1.35467,1.23472 -0.635,0 -0.9525,-0.35278 -0.9525,-0.79022 0,-0.54328 0.35983,-0.76906 0.99484,-0.83962 0.52211,-0.0705 1.10066,-0.0423 1.31233,-0.28222 z m 0.26811,-1.38289 c 0,-0.74789 -0.635,-0.94545 -1.27,-0.94545 -0.85372,0 -1.34761,0.40217 -1.38289,1.19945 h 0.26811 c 0.0353,-0.62795 0.46567,-0.96662 1.11478,-0.96662 0.8255,0 1.00894,0.55034 1.00894,0.71262 0,0.59266 -0.0494,0.67027 -1.24883,0.75494 -0.59972,0.0494 -1.3335,0.22578 -1.3335,1.07245 0,0.762 0.52917,1.02305 1.21356,1.02305 0.69144,0 1.17827,-0.37394 1.34761,-0.80433 h 0.0141 v 0.1905 c 0,0.29633 0.0635,0.52916 0.48683,0.52916 0.0706,0 0.14111,-0.0141 0.21873,-0.0282 v -0.22578 c -0.0847,0.0141 -0.14817,0.0212 -0.19756,0.0212 -0.23989,0 -0.23989,-0.22578 -0.23989,-0.43744 z m 3.60539,-0.86078 h -0.29633 l -1.22767,3.31611 h -0.0141 l -1.31234,-3.31611 h -0.31044 l 1.4605,3.62655 h 0.33161 z m 2.78695,2.24367 c 0,0.1905 -0.13405,1.23472 -1.35466,1.23472 -0.635,0 -0.9525,-0.35278 -0.9525,-0.79022 0,-0.54328 0.35983,-0.76906 0.99483,-0.83962 0.52211,-0.0705 1.10067,-0.0423 1.31233,-0.28222 z m 0.26811,-1.38289 c 0,-0.74789 -0.635,-0.94545 -1.27,-0.94545 -0.85372,0 -1.34761,0.40217 -1.38289,1.19945 h 0.26812 c 0.0353,-0.62795 0.46566,-0.96662 1.11477,-0.96662 0.8255,0 1.00895,0.55034 1.00895,0.71262 0,0.59266 -0.0494,0.67027 -1.24884,0.75494 -0.59972,0.0494 -1.3335,0.22578 -1.3335,1.07245 0,0.762 0.52917,1.02305 1.21356,1.02305 0.69144,0 1.17828,-0.37394 1.34761,-0.80433 h 0.0141 v 0.1905 c 0,0.29633 0.0635,0.52916 0.48684,0.52916 0.0705,0 0.14111,-0.0141 0.21872,-0.0282 v -0.22578 c -0.0847,0.0141 -0.14817,0.0212 -0.19756,0.0212 -0.23989,0 -0.23989,-0.22578 -0.23989,-0.43744 z m 1.12184,-0.86078 h -0.26811 v 3.62655 h 0.26811 v -1.98261 c 0.0282,-0.54328 0.14111,-0.76905 0.40922,-1.04422 0.32456,-0.3175 0.71967,-0.38806 1.00189,-0.35278 v -0.26811 c -0.65617,-0.0282 -1.24884,0.35278 -1.38995,0.8255 h -0.0212 z m 1.96145,0 h -0.26812 v 3.62655 h 0.26812 v -1.98261 c 0.0282,-0.54328 0.14111,-0.76905 0.40922,-1.04422 0.32455,-0.3175 0.71967,-0.38806 1.00189,-0.35278 v -0.26811 c -0.65617,-0.0282 -1.24884,0.35278 -1.38995,0.8255 h -0.0212 z m 4.09927,2.24367 c 0,0.1905 -0.13405,1.23472 -1.35467,1.23472 -0.635,0 -0.9525,-0.35278 -0.9525,-0.79022 0,-0.54328 0.35984,-0.76906 0.99484,-0.83962 0.52211,-0.0705 1.10066,-0.0423 1.31233,-0.28222 z m 0.26811,-1.38289 c 0,-0.74789 -0.635,-0.94545 -1.27,-0.94545 -0.85372,0 -1.34761,0.40217 -1.38289,1.19945 h 0.26811 c 0.0353,-0.62795 0.46567,-0.96662 1.11478,-0.96662 0.8255,0 1.00895,0.55034 1.00895,0.71262 0,0.59266 -0.0494,0.67027 -1.24884,0.75494 -0.59972,0.0494 -1.3335,0.22578 -1.3335,1.07245 0,0.762 0.52917,1.02305 1.21356,1.02305 0.69144,0 1.17828,-0.37394 1.34761,-0.80433 h 0.0141 v 0.1905 c 0,0.29633 0.0635,0.52916 0.48684,0.52916 0.0705,0 0.14111,-0.0141 0.21872,-0.0282 v -0.22578 c -0.0847,0.0141 -0.14817,0.0212 -0.19756,0.0212 -0.23989,0 -0.23989,-0.22578 -0.23989,-0.43744 z"
       id="text2"
       style="font-weight:250;font-size:7.05556px;font-family:'Helvetica Neue LT Std';-inkscape-font-specification:'Helvetica Neue LT Std weight=250';fill:#1a1a1a;stroke-width:0.3;stroke-opacity:0.992157"
       aria-label="Universidad Pública de Navarra" /><path
       d="m 58.467621,195.30347 h 0.310445 v -4.65667 h 0.01411 l 3.203224,4.65667 h 0.366889 v -5.03767 h -0.310444 v 4.62139 h -0.01411 l -3.182058,-4.62139 h -0.388056 z m 7.140223,-1.38289 c 0,0.1905 -0.134055,1.23472 -1.354667,1.23472 -0.635001,0 -0.952501,-0.35278 -0.952501,-0.79022 0,-0.54328 0.359834,-0.76906 0.994834,-0.83961 0.522112,-0.0706 1.100668,-0.0423 1.312334,-0.28223 z m 0.268112,-1.38289 c 0,-0.74789 -0.635001,-0.94545 -1.270001,-0.94545 -0.853723,0 -1.347612,0.40217 -1.38289,1.19945 h 0.268111 c 0.03528,-0.62795 0.465667,-0.96661 1.114779,-0.96661 0.8255,0 1.008945,0.55033 1.008945,0.71261 0,0.59266 -0.04939,0.67028 -1.248834,0.75494 -0.599723,0.0494 -1.333501,0.22578 -1.333501,1.07245 0,0.762 0.529167,1.02305 1.213556,1.02305 0.691445,0 1.178279,-0.37394 1.347612,-0.80433 h 0.01411 v 0.1905 c 0,0.29633 0.0635,0.52917 0.486834,0.52917 0.07056,0 0.141111,-0.0141 0.218722,-0.0282 v -0.22577 c -0.08467,0.0141 -0.148166,0.0212 -0.197555,0.0212 -0.239889,0 -0.239889,-0.22577 -0.239889,-0.43744 z m 1.107723,-0.62795 v 3.39373 h 0.268111 v -3.39373 h 0.754945 v -0.23283 H 67.25179 v -0.72672 c 0,-0.40217 0.232833,-0.508 0.529167,-0.508 0.105833,0 0.211667,0.0141 0.3175,0.0353 v -0.23283 c -0.105833,-0.0212 -0.211667,-0.0353 -0.3175,-0.0353 -0.437445,0 -0.797278,0.21167 -0.797278,0.71967 v 0.74789 h -0.649112 v 0.23283 z m 3.85233,2.01084 c 0,0.1905 -0.134056,1.23472 -1.354668,1.23472 -0.635,0 -0.952501,-0.35278 -0.952501,-0.79022 0,-0.54328 0.359834,-0.76906 0.994834,-0.83961 0.522112,-0.0706 1.100668,-0.0423 1.312335,-0.28223 z m 0.268111,-1.38289 c 0,-0.74789 -0.635001,-0.94545 -1.270001,-0.94545 -0.853723,0 -1.347612,0.40217 -1.38289,1.19945 h 0.268112 c 0.03528,-0.62795 0.465667,-0.96661 1.114778,-0.96661 0.825501,0 1.008945,0.55033 1.008945,0.71261 0,0.59266 -0.04939,0.67028 -1.248834,0.75494 -0.599723,0.0494 -1.333501,0.22578 -1.333501,1.07245 0,0.762 0.529167,1.02305 1.213556,1.02305 0.691445,0 1.178279,-0.37394 1.347612,-0.80433 h 0.01411 v 0.1905 c 0,0.29633 0.0635,0.52917 0.486833,0.52917 0.07056,0 0.141111,-0.0141 0.218723,-0.0282 v -0.22577 c -0.08467,0.0141 -0.148167,0.0212 -0.197556,0.0212 -0.239889,0 -0.239889,-0.22577 -0.239889,-0.43744 z m 1.121834,-0.86078 h -0.268111 v 3.62656 h 0.268111 v -1.98262 c 0.02822,-0.54327 0.141112,-0.76905 0.409223,-1.04422 0.324556,-0.3175 0.719667,-0.38805 1.001889,-0.35278 v -0.26811 c -0.656167,-0.0282 -1.248834,0.35278 -1.389945,0.8255 h -0.02117 z m 1.961445,0 h -0.268111 v 3.62656 h 0.268111 v -1.98262 c 0.02822,-0.54327 0.141111,-0.76905 0.409223,-1.04422 0.324555,-0.3175 0.719667,-0.38805 1.001889,-0.35278 v -0.26811 c -0.656167,-0.0282 -1.248834,0.35278 -1.389945,0.8255 h -0.02117 z m 1.523999,1.81328 c 0,1.03011 0.599723,1.89794 1.665113,1.89794 1.065389,0 1.665112,-0.86783 1.665112,-1.89794 0,-1.03011 -0.599723,-1.89795 -1.665112,-1.89795 -1.06539,0 -1.665113,0.86784 -1.665113,1.89795 z m 0.268112,0 c 0,-0.86784 0.486833,-1.66511 1.397001,-1.66511 0.910167,0 1.397001,0.79727 1.397001,1.66511 0,0.86783 -0.486834,1.66511 -1.397001,1.66511 -0.910168,0 -1.397001,-0.79728 -1.397001,-1.66511 z m 6.096009,0.43039 c 0,0.1905 -0.134056,1.23472 -1.354667,1.23472 -0.635001,0 -0.952501,-0.35278 -0.952501,-0.79022 0,-0.54328 0.359834,-0.76906 0.994834,-0.83961 0.522111,-0.0706 1.100667,-0.0423 1.312334,-0.28223 z m 0.268111,-1.38289 c 0,-0.74789 -0.635,-0.94545 -1.27,-0.94545 -0.853723,0 -1.347612,0.40217 -1.38289,1.19945 h 0.268111 c 0.03528,-0.62795 0.465667,-0.96661 1.114779,-0.96661 0.8255,0 1.008945,0.55033 1.008945,0.71261 0,0.59266 -0.04939,0.67028 -1.248834,0.75494 -0.599723,0.0494 -1.333501,0.22578 -1.333501,1.07245 0,0.762 0.529167,1.02305 1.213556,1.02305 0.691445,0 1.178279,-0.37394 1.347612,-0.80433 h 0.01411 v 0.1905 c 0,0.29633 0.0635,0.52917 0.486834,0.52917 0.07055,0 0.141111,-0.0141 0.218722,-0.0282 v -0.22577 c -0.08467,0.0141 -0.148167,0.0212 -0.197556,0.0212 -0.239889,0 -0.239889,-0.22577 -0.239889,-0.43744 z m 0.867835,2.76578 h 0.268111 v -1.36878 l 0.825501,-0.6985 1.545167,2.06728 h 0.366889 l -1.70039,-2.27189 1.587501,-1.35467 h -0.388055 l -2.236613,1.92617 v -3.33728 h -0.268111 z m 3.083275,-1.81328 c 0,1.03011 0.599723,1.89794 1.665112,1.89794 1.06539,0 1.665112,-0.86783 1.665112,-1.89794 0,-1.03011 -0.599722,-1.89795 -1.665112,-1.89795 -1.065389,0 -1.665112,0.86784 -1.665112,1.89795 z m 0.268111,0 c 0,-0.86784 0.486834,-1.66511 1.397001,-1.66511 0.910167,0 1.397001,0.79727 1.397001,1.66511 0,0.86783 -0.486834,1.66511 -1.397001,1.66511 -0.910167,0 -1.397001,-0.79728 -1.397001,-1.66511 z m 5.700897,-3.22439 v 3.01978 c 0,0.67027 0.09878,2.13783 1.890891,2.13783 1.509889,0 1.961445,-0.93839 1.961445,-2.13783 V 190.2658 H 95.80564 v 3.01978 c 0,1.143 -0.416278,1.86972 -1.651001,1.86972 -1.453446,0 -1.580446,-1.26295 -1.580446,-1.86972 v -3.01978 z m 4.691952,5.03767 h 0.268111 v -1.96145 c 0,-0.889 0.49389,-1.51694 1.305279,-1.51694 0.987779,0 1.030112,0.81139 1.030112,1.18533 v 2.29306 h 0.268111 v -2.24367 c 0,-0.4445 -0.01411,-1.46756 -1.291167,-1.46756 -0.564445,0 -1.114779,0.3175 -1.298223,0.86078 h -0.01411 v -0.77611 H 96.9557 Z m 3.99344,0 v -3.62656 h -0.26811 v 3.62656 z m 0,-4.31095 v -0.72672 h -0.26811 v 0.72672 z m 2.57528,4.16278 c -0.98778,0 -1.38289,-0.86078 -1.38289,-1.74978 0,-0.91017 0.43744,-1.58044 1.38289,-1.58044 0.86783,0 1.30528,0.77611 1.30528,1.58044 0,0.83256 -0.35278,1.74978 -1.30528,1.74978 z m -1.65806,0.14817 h 0.26811 v -0.81139 h 0.0141 c 0.0564,0.1905 0.42334,0.89605 1.37584,0.89605 0.50094,0 1.57339,-0.254 1.57339,-1.98261 0,-1.00894 -0.508,-1.81328 -1.57339,-1.81328 -0.58561,0 -1.17123,0.28928 -1.37584,0.85372 h -0.0141 v -2.18016 h -0.26811 z m 6.89328,-1.778 c 0.0494,-1.03717 -0.45861,-1.93323 -1.59456,-1.93323 -1.09361,0 -1.61572,0.96661 -1.60161,1.96145 -0.0141,1.00189 0.54328,1.83444 1.60161,1.83444 0.86078,0 1.42523,-0.46566 1.56634,-1.31233 h -0.26811 c -0.127,0.67028 -0.61384,1.0795 -1.29823,1.0795 -0.89605,0 -1.34761,-0.77611 -1.3335,-1.62983 z m -2.92806,-0.23284 c 0.0564,-0.71966 0.52917,-1.46755 1.3335,-1.46755 0.83256,0 1.31234,0.70555 1.32645,1.46755 z m 3.82411,-1.61572 h -0.26811 v 3.62656 h 0.26811 v -1.98262 c 0.0282,-0.54327 0.14111,-0.76905 0.40922,-1.04422 0.32456,-0.3175 0.71967,-0.38805 1.00189,-0.35278 v -0.26811 c -0.65617,-0.0282 -1.24883,0.35278 -1.38994,0.8255 h -0.0212 z m 1.55222,2.42006 c 0.0212,0.84666 0.64206,1.29116 1.46756,1.29116 0.635,0 1.41817,-0.21872 1.41817,-1.00189 0,-0.762 -0.56445,-0.93133 -1.28412,-1.06539 -0.58561,-0.127 -1.2065,-0.21872 -1.2065,-0.79727 0,-0.51506 0.55034,-0.6985 1.04423,-0.6985 0.60677,0 1.06538,0.26811 1.07244,0.92427 h 0.26811 c 0,-0.8255 -0.5715,-1.15711 -1.34055,-1.15711 -0.61384,0 -1.31234,0.21167 -1.31234,0.93134 0,0.74083 0.62089,0.90311 1.24884,1.03011 0.62088,0.127 1.24177,0.21872 1.24177,0.83255 0,0.62795 -0.67733,0.76906 -1.15005,0.76906 -0.65617,0 -1.15711,-0.38806 -1.19945,-1.05833 z m 3.86645,1.2065 v -3.62656 h -0.26811 v 3.62656 z m 0,-4.31095 v -0.72672 h -0.26811 v 0.72672 z m 2.18722,0.68439 h -0.79022 v -1.12889 h -0.26811 v 1.12889 h -0.67028 v 0.23283 h 0.67028 v 2.53295 c -0.0282,0.81844 0.50094,0.89605 1.05128,0.86078 v -0.23284 c -0.508,0.0141 -0.78317,-0.0423 -0.78317,-0.62794 v -2.53295 h 0.79022 z m 2.89984,2.24367 c 0,0.1905 -0.13405,1.23472 -1.35466,1.23472 -0.635,0 -0.9525,-0.35278 -0.9525,-0.79022 0,-0.54328 0.35983,-0.76906 0.99483,-0.83961 0.52211,-0.0706 1.10067,-0.0423 1.31233,-0.28223 z m 0.26812,-1.38289 c 0,-0.74789 -0.635,-0.94545 -1.27001,-0.94545 -0.85372,0 -1.34761,0.40217 -1.38289,1.19945 h 0.26812 c 0.0353,-0.62795 0.46566,-0.96661 1.11477,-0.96661 0.82551,0 1.00895,0.55033 1.00895,0.71261 0,0.59266 -0.0494,0.67028 -1.24883,0.75494 -0.59973,0.0494 -1.33351,0.22578 -1.33351,1.07245 0,0.762 0.52917,1.02305 1.21356,1.02305 0.69145,0 1.17828,-0.37394 1.34761,-0.80433 h 0.0141 v 0.1905 c 0,0.29633 0.0635,0.52917 0.48684,0.52917 0.0706,0 0.14111,-0.0141 0.21872,-0.0282 v -0.22577 c -0.0847,0.0141 -0.14817,0.0212 -0.19756,0.0212 -0.23988,0 -0.23988,-0.22577 -0.23988,-0.43744 z m 2.18722,-0.86078 h -0.79023 v -1.12889 h -0.26811 v 1.12889 h -0.67027 v 0.23283 h 0.67027 v 2.53295 c -0.0282,0.81844 0.50095,0.89605 1.05128,0.86078 v -0.23284 c -0.508,0.0141 -0.78317,-0.0423 -0.78317,-0.62794 v -2.53295 h 0.79023 z m 3.52778,1.84856 c 0.0494,-1.03717 -0.45861,-1.93323 -1.59455,-1.93323 -1.09361,0 -1.61573,0.96661 -1.60161,1.96145 -0.0141,1.00189 0.54327,1.83444 1.60161,1.83444 0.86078,0 1.42522,-0.46566 1.56633,-1.31233 h -0.26811 c -0.127,0.67028 -0.61383,1.0795 -1.29822,1.0795 -0.89606,0 -1.34761,-0.77611 -1.3335,-1.62983 z m -2.92805,-0.23284 c 0.0564,-0.71966 0.52916,-1.46755 1.3335,-1.46755 0.83255,0 1.31233,0.70555 1.32644,1.46755 z m 5.87727,-2.75872 h 1.81328 c 1.00895,0 1.17828,0.762 1.17828,1.13594 0,0.52211 -0.31044,1.12184 -1.22061,1.12184 h -1.77095 z m -0.31044,4.76956 h 0.31044 v -2.24367 h 1.72156 c 1.00189,0 1.58044,-0.50095 1.58044,-1.38289 0,-1.2065 -0.89605,-1.41111 -1.46755,-1.41111 h -2.14489 z m 6.99205,-3.62656 h -0.26811 v 1.96144 c 0,0.88901 -0.49389,1.51695 -1.30528,1.51695 -0.98778,0 -1.03011,-0.81139 -1.03011,-1.18533 v -2.29306 h -0.26811 v 2.24367 c 0,0.4445 0.0141,1.46755 1.29117,1.46755 0.56444,0 1.11478,-0.3175 1.29822,-0.86077 h 0.0141 v 0.77611 h 0.26811 z m 2.51177,3.47839 c -0.98778,0 -1.38289,-0.86078 -1.38289,-1.74978 0,-0.91017 0.43745,-1.58044 1.38289,-1.58044 0.86784,0 1.30528,0.77611 1.30528,1.58044 0,0.83256 -0.35278,1.74978 -1.30528,1.74978 z m -1.65805,0.14817 h 0.26811 v -0.81139 h 0.0141 c 0.0564,0.1905 0.42333,0.89605 1.37583,0.89605 0.50095,0 1.57339,-0.254 1.57339,-1.98261 0,-1.00894 -0.508,-1.81328 -1.57339,-1.81328 -0.58561,0 -1.17122,0.28928 -1.37583,0.85372 h -0.0141 v -2.18016 h -0.26811 z m 3.92289,-5.03767 v 5.03767 h 0.26811 v -5.03767 z m 1.45344,5.03767 v -3.62656 h -0.26811 v 3.62656 z m 0,-4.31095 v -0.72672 h -0.26811 v 0.72672 z m 0.86783,4.31095 h 0.26811 v -1.36878 l 0.8255,-0.6985 1.54517,2.06728 h 0.36688 l -1.70039,-2.27189 1.58751,-1.35467 h -0.38806 l -2.23661,1.92617 v -3.33728 h -0.26811 z m 3.08328,-1.81328 c 0,1.03011 0.59972,1.89794 1.66511,1.89794 1.06539,0 1.66511,-0.86783 1.66511,-1.89794 0,-1.03011 -0.59972,-1.89795 -1.66511,-1.89795 -1.06539,0 -1.66511,0.86784 -1.66511,1.89795 z m 0.26811,0 c 0,-0.86784 0.48683,-1.66511 1.397,-1.66511 0.91016,0 1.397,0.79727 1.397,1.66511 0,0.86783 -0.48684,1.66511 -1.397,1.66511 -0.91017,0 -1.397,-0.79728 -1.397,-1.66511 z m 6.09601,0.43039 c 0,0.1905 -0.13406,1.23472 -1.35467,1.23472 -0.635,0 -0.9525,-0.35278 -0.9525,-0.79022 0,-0.54328 0.35983,-0.76906 0.99483,-0.83961 0.52211,-0.0706 1.10067,-0.0423 1.31234,-0.28223 z m 0.26811,-1.38289 c 0,-0.74789 -0.635,-0.94545 -1.27,-0.94545 -0.85373,0 -1.34762,0.40217 -1.38289,1.19945 h 0.26811 c 0.0353,-0.62795 0.46566,-0.96661 1.11478,-0.96661 0.8255,0 1.00894,0.55033 1.00894,0.71261 0,0.59266 -0.0494,0.67028 -1.24883,0.75494 -0.59973,0.0494 -1.3335,0.22578 -1.3335,1.07245 0,0.762 0.52916,1.02305 1.21355,1.02305 0.69145,0 1.17828,-0.37394 1.34761,-0.80433 h 0.0141 v 0.1905 c 0,0.29633 0.0635,0.52917 0.48683,0.52917 0.0706,0 0.14111,-0.0141 0.21872,-0.0282 v -0.22577 c -0.0847,0.0141 -0.14816,0.0212 -0.19755,0.0212 -0.23989,0 -0.23989,-0.22577 -0.23989,-0.43744 z"
       id="text2-4"
       style="font-weight:250;font-size:7.05556px;font-family:'Helvetica Neue LT Std';-inkscape-font-specification:'Helvetica Neue LT Std weight=250';fill:#1a1a1a;stroke-width:0.3;stroke-opacity:0.992157"
       aria-label="Nafarroako Unibersitate Publikoa" /></g></svg>
