<?xml version="1.0" encoding="UTF-8" standalone="no"?>
<!-- Created with Inkscape (http://www.inkscape.org/) -->

<svg
   width="176.21095mm"
   height="75.804398mm"
   viewBox="0 0 176.21095 75.804398"
   version="1.1"
   id="svg1"
   xml:space="preserve"
   xmlns="http://www.w3.org/2000/svg"
   xmlns:svg="http://www.w3.org/2000/svg"><defs
     id="defs1" /><g
     id="layer1"
     transform="translate(-10.827586,-122.10418)"><path
       style="fill:#0077a0;fill-opacity:1;stroke:none"
       d="m 121.97041,149.48238 -0.7324,5.12685 h 4.21134 c 0,0 -1.69271,13.34754 -4.44177,18.67639 -0.88487,1.71525 -2.03765,3.3046 -3.30149,4.76064 -0.44325,0.51066 -1.56319,1.73913 -1.56319,1.73913 0,0 1.33468,1.45811 1.79927,1.92291 0.55249,0.55274 2.28866,2.57279 2.28866,2.57279 0,0 1.3343,-1.31875 1.73888,-1.68836 1.26108,-1.1521 2.40326,-2.58266 3.35672,-3.99716 2.9703,-4.40656 4.50488,-9.64385 5.41747,-14.83125 0.44978,-2.55667 1.52399,-8.85366 1.52399,-8.85366 l 4.89597,-0.0452 1.42276,-5.29136 -5.44699,-0.0917 c 0.34192,-2.69138 1.28989,-6.01276 4.57754,-6.04152 0.9659,-0.008 4.30136,0.91665 4.30136,0.91665 0,0 1.66109,-4.05723 2.10744,-5.12931 -7.49279,-2.58769 -11.68661,-1.99319 -15.25815,2.5639 -1.08248,1.38118 -1.72803,3.0574 -2.09832,4.76065 -0.15769,0.7253 -0.48358,2.78727 -0.48358,2.78727 0,0 -3.30467,0.14236 -4.31551,0.14236 M 47.814161,138.39821 c -5.194624,0.93489 -4.827859,9.07022 0.732407,8.06948 5.154998,-0.92779 4.705949,-9.04823 -0.732407,-8.06948 m -36.986575,1.92907 7.324075,32.40395 h 5.213034 l 18.773308,-32.40395 h -7.324074 l -12.267824,22.88773 -4.394444,-22.88773 h -7.324075 m 40.831713,25.81736 -2.197222,4.94375 c 3.710668,2.1658 8.451915,2.95353 12.634028,1.80206 4.031264,-1.10994 6.460414,-4.82951 5.229422,-8.94303 -0.848511,-2.83541 -3.582209,-4.08256 -5.778727,-5.7047 -0.798573,-0.58975 -2.086416,-1.54929 -1.687758,-2.71516 0.989374,-2.89342 6.546584,-0.53046 8.279424,0.18028 l 1.098611,-5.49306 c -5.479075,-1.78282 -16.295782,-2.59807 -16.295782,5.85926 0,1.07687 0.208688,2.11927 0.63464,3.11273 0.983233,2.29323 3.262845,3.44409 5.224337,4.76079 0.834474,0.56017 2.158638,1.37856 2.032068,2.56315 -0.114466,1.07128 -1.311412,1.51972 -2.21517,1.70852 -2.414284,0.50437 -4.918577,-1.00159 -6.957871,-2.07459 m 36.620367,0.36621 c -2.38957,0.68812 -4.543524,1.99864 -7.140968,1.29499 -4.903423,-1.32833 -4.376256,-8.39798 -1.447722,-11.34907 3.189609,-3.21416 7.10955,-2.27954 10.78592,-0.74893 l 1.28171,-5.49306 c -4.94081,-1.90597 -10.912258,-1.82096 -15.380556,1.28892 -5.666362,3.94372 -8.071686,13.8232 -2.897841,19.20196 3.110083,3.23326 8.024253,3.01384 12.052933,2.00282 0.923184,-0.23168 0.985364,-0.25517 3.960464,-1.42968 -1.23245,-4.72661 0.051,0.11743 -1.21394,-4.76795 m 53.282644,-15.74676 0.91551,4.57754 c 3.41352,-0.93175 10.60253,-3.66845 10.61991,2.38033 -4.10493,0 -9.03565,0.0167 -12.45093,2.6602 -3.84843,2.97879 -4.60591,10.59746 0.73241,12.52072 3.87916,1.39756 7.38062,-0.59108 10.0706,-3.2793 l 0.73241,3.66204 5.67616,-1.28172 c -1.07835,-7.66828 1.40843,-9.81154 1.95535,-14.75354 0.34669,-3.13273 -0.92449,-6.20788 -3.96947,-7.44628 -1.02741,-0.41785 -2.14682,-0.64764 -3.24356,-0.7926 -1.57939,-0.20875 -3.24276,-0.11097 -4.81292,0.10469 -2.12762,0.29222 -6.22547,1.64792 -6.22547,1.64792 m 30.76111,2.92963 0.77917,-3.89051 -5.77278,-0.13265 -5.26009,23.24885 h 6.77477 c 0,0 1.48459,-11.13689 4.55918,-15.19745 1.0724,-1.4163 4.00543,-4.16889 5.83581,-2.33851 1.21195,1.21197 0.38868,3.47306 0.0803,4.90193 -0.90919,4.21188 -2.78496,12.63403 -2.78496,12.63403 l 6.76315,-0.0965 c 0,0 1.21742,-5.08028 1.77864,-7.59377 0.86972,-3.84932 2.78369,-8.70308 1.5702,-12.63402 -2.23655,-7.24504 -11.2671,-2.39976 -14.32334,1.09861 m -63.53634,-4.57755 c 0,1.55082 -0.1249,5.11032 -0.1249,5.11032 0,0 1.32072,1.42526 1.78101,2.21446 0.91468,1.56828 0.78568,3.41921 0.51922,5.14254 -0.23747,1.53581 -0.85835,3.17985 -1.86932,4.37537 -0.50557,0.59786 -1.69157,1.70556 -1.69157,1.70556 l -1.17786,5.6212 c 4.20647,-0.90951 9.865,-4.82 11.09136,-10.43681 1.3309,-6.09564 -1.3234,-13.58391 -8.52794,-13.73264 m -65.367364,0.36621 -5.126852,23.24885 h 6.639563 l 5.262058,-23.24885 h -6.774819 m 53.09954,21.78912 c 1.37633,-6.67175 2.56342,-13.3064 2.56342,-20.14121 -6.91581,2.67934 -8.58723,15.8862 -2.56342,20.14121 m 55.662964,-8.972 c -0.3693,2.74027 -4.09913,7.51804 -7.31603,5.35785 -3.38185,-2.27094 1.48845,-4.89495 3.47089,-5.24524 1.25353,-0.22149 2.57622,-0.11261 3.84514,-0.11261 z"
       id="path1" /><path
       id="path1298"
       style="fill:#f07d1a;fill-opacity:1;stroke-width:0.264583"
       d="m 95.575562,122.10417 c -2.681554,0 -3.495923,0.32339 -5.659603,1.65107 -5.951377,3.65188 -9.512598,13.8591 -9.512598,13.8591 0,0 4.621738,-10.63752 11.281999,-10.83035 5.993251,-0.17352 8.151957,7.77834 8.151957,7.77834 0,0 2.024473,5.34753 2.089283,15.03784 0.0682,10.20038 -3.525246,42.0881 -17.051161,43.07024 -8.08219,0.58686 -10.075354,-13.02711 -10.075354,-13.02711 0,0 1.604319,18.34111 10.999846,18.26503 11.320833,-0.0917 17.921019,-20.67106 19.754349,-35.2919 3.26616,-26.04753 -2.95434,-40.51226 -9.978718,-40.51226 z" /></g></svg>
